<?xml version="1.0" encoding="UTF-8"?>
<svg version="1.1" xmlns="http://www.w3.org/2000/svg" width="512" height="512">
<path d="M0 0 C0.86317337 -0.00979385 1.72634674 -0.01958771 2.61567688 -0.02967834 C22.99673306 -0.21298523 42.66134981 0.30568022 62.734375 4.23828125 C63.83442871 4.45258789 64.93448242 4.66689453 66.06787109 4.88769531 C100.15575995 11.74620451 146.85163349 21.6668934 168.3203125 51.4375 C177.55493704 65.61757068 180.90950079 82.78435435 177.51953125 99.375 C172.80163395 116.58006827 162.34661436 131.6890219 146.796875 140.67578125 C131.82659922 148.93326048 114.6524761 152.14027513 98.0078125 147.41015625 C93.1159445 145.65889086 88.40236968 143.52193929 83.64624023 141.43481445 C56.12105113 129.68819086 15.61933877 119.27687896 -13.703125 129.98828125 C-29.16837148 137.01564895 -36.77215285 156.30935682 -42.46484375 171.421875 C-43.96098325 176.68390709 -43.02098041 180.6985183 -40.640625 185.55078125 C-37.38748336 189.23196785 -33.94419411 191.06450582 -29.05664062 191.3815918 C-26.47046709 191.30654185 -23.9072696 191.13061239 -21.328125 190.92578125 C46.21639724 186.84650838 46.21639724 186.84650838 69.5703125 205.50390625 C82.09574756 216.96553724 88.85287625 233.54114683 89.9375 250.39453125 C90.17021326 266.99474402 86.171469 283.80017975 74.546875 296.23828125 C53.78048891 314.83928349 25.96117006 317.26409933 -0.69921875 317.44921875 C-2.99935659 317.47724541 -5.29948673 317.50590946 -7.59960938 317.53515625 C-11.16984171 317.57659314 -14.73992318 317.61355023 -18.31030273 317.63964844 C-21.79439509 317.66722261 -25.27786598 317.71303447 -28.76171875 317.76171875 C-29.82740585 317.76497162 -30.89309296 317.76822449 -31.99107361 317.77157593 C-37.4729683 317.86251287 -41.56921769 318.08150138 -46.265625 321.23828125 C-50.41095236 325.83175211 -51.49815358 328.41213189 -51.41748047 334.64257812 C-51.15204483 339.17973523 -50.27373886 343.54964748 -49.328125 347.98828125 C-49.10995117 349.02122314 -48.89177734 350.05416504 -48.66699219 351.1184082 C-46.0112043 363.12396349 -42.25475673 374.77475939 -38.48144531 386.46679688 C-36.8237179 391.60908063 -35.1882546 396.75809081 -33.57128906 401.91333008 C-32.81152432 404.33449104 -32.04572824 406.7537719 -31.27246094 409.1706543 C-24.34024736 431.21885614 -19.87840991 454.57983684 -29.890625 476.30078125 C-38.76295229 492.92016505 -53.7515411 505.07771808 -71.4296875 511.36328125 C-87.96199503 515.13439824 -105.62222557 512.66292381 -120.140625 503.98828125 C-138.91824564 490.90597498 -146.30697357 473.25136455 -153.078125 452.11328125 C-153.39253036 451.13284348 -153.39253036 451.13284348 -153.71328735 450.13259888 C-178.67817368 371.83113784 -187.46656105 286.49063508 -145.54785156 93.65722656 C-142.1640249 87.27357184 -138.30974213 81.21964304 -134.265625 75.23828125 C-133.85844238 74.62903809 -133.45125977 74.01979492 -133.03173828 73.39208984 C-127.53482503 65.22194548 -121.53544385 57.78388566 -114.68652344 50.71044922 C-113.25226361 49.22443775 -111.84104724 47.71868042 -110.4296875 46.2109375 C-82.42687074 16.76067784 -40.37034676 0.38143813 0 0 Z " fill="#0CC166" transform="translate(257.265625,-0.23828125)"/>
<path d="M0 0 C1.32031975 -0.01058945 1.32031975 -0.01058945 2.66731262 -0.02139282 C57.54625098 -0.3615559 57.54625098 -0.3615559 70.6484375 11.0546875 C76.87189277 17.56338447 79.73605636 24.07883453 79.8359375 33.078125 C79.75976126 36.46997233 79.59802371 38.97936636 78.5234375 42.203125 C79.61978516 42.33847656 79.61978516 42.33847656 80.73828125 42.4765625 C86.79534391 44.0566658 91.89390052 49.6569855 95.0234375 54.953125 C98.79636728 63.12780619 99.00843241 73.16233789 95.9609375 81.640625 C92.30093013 89.46148285 86.40452864 94.01642293 78.5234375 97.203125 C71.31304585 99.60658888 61.9461949 99.38183333 55.0234375 96.203125 C47.80358937 91.96251536 42.58076911 85.44606229 39.95703125 77.484375 C39.34965368 74.2888029 39.4308523 71.2023263 39.4609375 67.953125 C39.46996094 66.68984375 39.47898437 65.4265625 39.48828125 64.125 C39.50568359 62.67867187 39.50568359 62.67867187 39.5234375 61.203125 C18.37861473 58.8003684 -4.95466252 57.99665373 -25.4765625 64.203125 C-26.27545898 64.43918457 -27.07435547 64.67524414 -27.89746094 64.91845703 C-56.72816378 73.73131082 -77.42254844 94.67559295 -91.50390625 120.9140625 C-94.50978089 126.70422486 -97.24286699 132.57385731 -99.73046875 138.60546875 C-100.11525391 139.53351318 -100.50003906 140.46155762 -100.89648438 141.41772461 C-101.63610489 143.22078668 -102.36108615 145.02995279 -103.06835938 146.84594727 C-106.44779104 155.13780609 -111.47846833 161.87082399 -119.4765625 166.203125 C-126.58491731 169.04646692 -134.33802698 169.54853271 -141.63671875 167.17578125 C-150.1563671 163.2875473 -157.05348783 157.6940133 -160.4765625 148.765625 C-163.95610085 135.70605898 -159.21969277 122.97105368 -153.9140625 111.078125 C-153.47570068 110.08675537 -153.03733887 109.09538574 -152.58569336 108.07397461 C-133.27574088 65.1464914 -101.81938195 28.96759892 -57.4765625 11.203125 C-39.12310148 4.32875602 -19.62507985 0.10517411 0 0 Z " fill="#78FE79" transform="translate(257.4765625,-0.203125)"/>
<path d="M0 0 C2 1 2 1 2.78305054 2.78343201 C3.03301788 3.56186966 3.28298523 4.34030731 3.54052734 5.14233398 C3.82777679 6.02513535 4.11502625 6.90793671 4.41098022 7.81748962 C4.71621613 8.78392899 5.02145203 9.75036835 5.3359375 10.74609375 C5.81687363 12.24475731 5.81687363 12.24475731 6.30752563 13.7736969 C6.98873388 15.90367502 7.66605306 18.03490015 8.33984375 20.16723633 C9.35316715 23.36852571 10.38257533 26.56428986 11.4140625 29.75976562 C19.60630408 55.36945124 28.25952745 83.27967795 16.375 109.0625 C7.50267271 125.6818838 -7.4859161 137.83943683 -25.1640625 144.125 C-41.69637003 147.89611699 -59.35660057 145.42464256 -73.875 136.75 C-92.74609206 123.6025725 -100.08481614 105.86267827 -106.875 84.625 C-107.18833282 83.65234192 -107.18833282 83.65234192 -107.50799561 82.66003418 C-110.94290409 71.95568937 -113.91215531 61.15842237 -116.625 50.25 C-116.79916443 49.55110657 -116.97332886 48.85221313 -117.152771 48.13214111 C-120 36.63129556 -120 36.63129556 -120 33 C-118.99437012 32.9906543 -117.98874023 32.98130859 -116.95263672 32.97167969 C-88.73421832 32.76504865 -88.73421832 32.76504865 -61 28 C-60.29794434 27.81953125 -59.59588867 27.6390625 -58.87255859 27.453125 C-54.16177109 26.19541773 -49.57762285 24.67468797 -45 23 C-44.21915039 22.71640625 -43.43830078 22.4328125 -42.63378906 22.140625 C-27.36737609 16.51333338 -13.29546097 9.41761819 0 0 Z " fill="#04A550" transform="translate(211,367)"/>
<path d="M0 0 C0.88021317 -0.00705963 1.76042633 -0.01411926 2.66731262 -0.02139282 C57.54625098 -0.3615559 57.54625098 -0.3615559 70.6484375 11.0546875 C76.87189277 17.56338447 79.73605636 24.07883453 79.8359375 33.078125 C79.75976126 36.46997233 79.59802371 38.97936636 78.5234375 42.203125 C79.61978516 42.33847656 79.61978516 42.33847656 80.73828125 42.4765625 C86.79534391 44.0566658 91.89390052 49.6569855 95.0234375 54.953125 C98.79636728 63.12780619 99.00843241 73.16233789 95.9609375 81.640625 C92.30093013 89.46148285 86.40452864 94.01642293 78.5234375 97.203125 C71.31304585 99.60658888 61.9461949 99.38183333 55.0234375 96.203125 C47.80358937 91.96251536 42.58076911 85.44606229 39.95703125 77.484375 C39.34965368 74.2888029 39.4308523 71.2023263 39.4609375 67.953125 C39.46996094 66.68984375 39.47898437 65.4265625 39.48828125 64.125 C39.49988281 63.16078125 39.51148438 62.1965625 39.5234375 61.203125 C13.91022527 58.29261043 -12.56298595 58.35804296 -36.63330078 68.35986328 C-38.22849588 69.02259931 -39.85077221 69.61945355 -41.4765625 70.203125 C-42.1365625 69.873125 -42.7965625 69.543125 -43.4765625 69.203125 C-43.07824219 68.80222656 -42.67992187 68.40132813 -42.26953125 67.98828125 C-36.58306484 61.8867443 -34.38076592 56.03269376 -34.1015625 47.703125 C-34.45585419 38.26846861 -37.3011351 32.20702342 -43.90625 25.37890625 C-52.31242032 18.26304475 -62.05596667 18.69686123 -72.4765625 19.203125 C-54.40239536 4.47441668 -22.53190975 0.1207523 0 0 Z " fill="#28DF87" transform="translate(257.4765625,-0.203125)"/>
<path d="M0 0 C15.93708063 -1.15906041 32.55361024 4.82774111 45.1640625 14.40234375 C57.48487651 25.68793785 64.139996 42.636861 65.203125 59.15625 C65.43583826 75.75646277 61.437094 92.5618985 49.8125 105 C30.04721527 122.70428923 2.63546615 126.52081082 -23 126 C-21.67127122 122.5459221 -20.16687089 119.27512832 -18.4609375 115.9921875 C-4.8109418 89.11472774 2.18886841 62.30761059 2.18530273 32.19189453 C2.18749019 30.13422964 2.20573483 28.07710219 2.22460938 26.01953125 C2.26073574 17.15308916 1.50818432 8.73465161 0 0 Z " fill="#04A550" transform="translate(282,191)"/>
<path d="M0 0 C2 1 2 1 2.91381836 3.32226562 C3.21940674 4.33998047 3.52499512 5.35769531 3.83984375 6.40625 C4.17951172 7.53426025 4.51917969 8.66227051 4.86914062 9.82446289 C5.22169922 11.03739014 5.57425781 12.25031738 5.9375 13.5 C6.29650391 14.73290771 6.65550781 15.96581543 7.02539062 17.23608398 C13.47338275 39.8232821 17.32929832 62.41639974 5.7734375 84.0625 C-3.33529532 99.15009268 -17.61095902 110.2394521 -34.1640625 116.125 C-50.73128579 119.90408148 -68.41341313 117.42198535 -82.9375 108.6875 C-87.9925068 105.21026805 -92.5575714 101.22304941 -97 97 C-96.67 95.68 -96.34 94.36 -96 93 C-95.01902344 92.85304688 -94.03804688 92.70609375 -93.02734375 92.5546875 C-83.06438929 90.94711667 -74.15641359 88.28067134 -65 84 C-64.37738281 83.70996094 -63.75476563 83.41992188 -63.11328125 83.12109375 C-35.91527747 70.16699298 -15.59827085 46.97735329 -5.1875 18.8125 C-3.09963031 12.62648068 -1.43440276 6.36734884 0 0 Z " fill="#00893E" transform="translate(220,395)"/>
<path d="M0 0 C0.90457555 3.02445872 1.00162382 5.48656681 0.8125 8.625 C0.76283812 17.06751928 4.10407145 24.16036112 9.8984375 30.23828125 C16.50638291 35.77765557 23.62012186 37.78412274 32.15234375 37.34375 C42.38845472 36.10811521 47.86819566 31.13180434 55 24 C54.34656509 27.40556247 53.57584 30.7517776 52.6953125 34.10546875 C50.23521662 43.62182429 47.86093019 53.00815836 46.5 62.75 C44.95911051 73.11619305 41.53395306 82.09378136 32.9765625 88.6640625 C25.32760818 93.8339091 18.13499732 93.86863611 9 93 C-0.0581297 90.71496081 -6.23558431 85.95706537 -11 78 C-16.86724334 67.38753595 -13.90631628 54.46769838 -11.4375 43.25 C-11.17300049 42.00879395 -10.90850098 40.76758789 -10.63598633 39.48876953 C-7.72980411 26.18814506 -4.30751289 12.92253868 0 0 Z " fill="#28DF87" transform="translate(96,130)"/>
<path d="M0 0 C8.03615171 4.2720063 13.52310544 10.07430276 17.125 18.4375 C19.48969278 26.19429479 18.27968041 34.0844855 15.125 41.4375 C10.55941499 49.35118069 4.2554836 54.34986585 -4.4921875 56.9296875 C-12.61796906 58.66141144 -19.64506221 57.52948387 -26.875 53.4375 C-34.19414723 48.24400777 -39.08057017 42.3265737 -40.875 33.4375 C-41.69202456 23.4603731 -40.06447145 15.21981338 -33.7578125 7.296875 C-24.94173646 -1.40945735 -11.7014993 -4.78697699 0 0 Z " fill="#28DF87" transform="translate(239.875,195.5625)"/>
<path d="M0 0 C6.62831101 3.95686694 12.79978049 10.18261455 15.09765625 17.70703125 C16.66395651 26.87673085 16.40544387 35.97358223 11.5 44.0625 C6.75838464 50.29262247 0.82459349 53.62096884 -6.5 56.0625 C-15.73036449 56.84568244 -23.82976843 56.83953467 -31.5 51.0625 C-37.73712959 45.29877683 -42.03713642 38.73068188 -42.73828125 30.14453125 C-42.97639262 19.65509871 -40.81295219 12.5366602 -33.51953125 4.859375 C-24.45406065 -3.20661431 -11.14782774 -4.93738667 0 0 Z " fill="#78FE78" transform="translate(339.5,41.9375)"/>
</svg>
